<svg width="1200" height="630" viewBox="0 0 1200 630" fill="none" xmlns="http://www.w3.org/2000/svg">
  <defs>
    <linearGradient id="bg" x1="600" y1="0" x2="600" y2="630" gradientUnits="userSpaceOnUse">
      <stop stop-color="#2C3556"/>
      <stop offset="1" stop-color="#141B33"/>
    </linearGradient>
    <linearGradient id="panel" x1="600" y1="80" x2="600" y2="550" gradientUnits="userSpaceOnUse">
      <stop stop-color="#1A2140" stop-opacity="0.96"/>
      <stop offset="1" stop-color="#0F152A" stop-opacity="0.96"/>
    </linearGradient>
  </defs>
  <rect width="1200" height="630" fill="url(#bg)"/>
  <circle cx="138" cy="114" r="120" fill="#FFB703" fill-opacity="0.12"/>
  <circle cx="1032" cy="120" r="140" fill="#89D0FF" fill-opacity="0.12"/>
  <rect x="70" y="70" width="1060" height="490" rx="28" fill="url(#panel)" stroke="#FFB703" stroke-width="4"/>
  <rect x="96" y="96" width="1008" height="438" rx="18" stroke="#89D0FF" stroke-opacity="0.26" stroke-width="2"/>

  <text x="118" y="148" fill="#FFCF47" font-family="Inter, PingFang SC, sans-serif" font-size="24" letter-spacing="4">OPENCLAW AGENT OFFICE</text>
  <text x="118" y="238" fill="#FFF8EE" font-family="Inter, PingFang SC, sans-serif" font-size="78" font-weight="800">AI圈顶流小龙虾</text>
  <text x="118" y="320" fill="#E5EEFF" font-family="Inter, PingFang SC, sans-serif" font-size="34" font-weight="600">20 分钟走完 30+ 个 OpenClaw AI Agent 落地场景</text>
  <text x="118" y="372" fill="#C6D5F2" font-family="Inter, PingFang SC, sans-serif" font-size="28">Pixel office demo · Presenter tools · Search · KPI dashboard · Deep links</text>

  <rect x="118" y="424" width="204" height="56" rx="16" fill="#FFB703" fill-opacity="0.16" stroke="#FFB703" stroke-opacity="0.64"/>
  <text x="146" y="460" fill="#FFF3CB" font-family="Inter, PingFang SC, sans-serif" font-size="24" font-weight="700">Monash Velos</text>

  <rect x="344" y="424" width="182" height="56" rx="16" fill="#89D0FF" fill-opacity="0.12" stroke="#89D0FF" stroke-opacity="0.54"/>
  <text x="372" y="460" fill="#EAF5FF" font-family="Inter, PingFang SC, sans-serif" font-size="24" font-weight="700">Apr 26, 2026</text>

  <g transform="translate(868 180)">
    <rect x="0" y="0" width="168" height="168" rx="18" fill="#111B35" stroke="#FFB703" stroke-opacity="0.38" stroke-width="3"/>
    <rect x="18" y="22" width="132" height="18" rx="8" fill="#FFB703" fill-opacity="0.16"/>
    <rect x="18" y="58" width="54" height="78" rx="10" fill="#FF6B6B" fill-opacity="0.78"/>
    <rect x="82" y="58" width="68" height="30" rx="10" fill="#89D0FF" fill-opacity="0.82"/>
    <rect x="82" y="96" width="68" height="40" rx="10" fill="#FFB703" fill-opacity="0.74"/>
  </g>
  <g transform="translate(936 388)">
    <rect x="0" y="0" width="88" height="88" rx="16" fill="#0E1630" stroke="#89D0FF" stroke-opacity="0.28" stroke-width="3"/>
    <circle cx="44" cy="44" r="22" fill="#FFB703" fill-opacity="0.18"/>
    <circle cx="44" cy="44" r="8" fill="#FFB703"/>
    <path d="M44 18L60 58H28L44 18Z" fill="#FFFFFF"/>
  </g>
</svg>
