<svg xmlns="http://www.w3.org/2000/svg" width="256" height="32" viewBox="0 0 256 32" shape-rendering="crispEdges">
  <defs>
    <g id="lobster-down">
      <rect x="11" y="4" width="1" height="3" fill="#ff6c61" />
      <rect x="20" y="4" width="1" height="3" fill="#ff6c61" />
      <rect x="10" y="3" width="1" height="1" fill="#ff6c61" />
      <rect x="12" y="3" width="1" height="1" fill="#ff6c61" />
      <rect x="19" y="3" width="1" height="1" fill="#ff6c61" />
      <rect x="21" y="3" width="1" height="1" fill="#ff6c61" />
      <rect x="13" y="7" width="6" height="1" fill="#ff6c61" />
      <rect x="11" y="8" width="10" height="1" fill="#ff6c61" />
      <rect x="10" y="9" width="12" height="1" fill="#ff6c61" />
      <rect x="9" y="10" width="14" height="1" fill="#ff6c61" />
      <rect x="9" y="11" width="14" height="1" fill="#ff6c61" />
      <rect x="8" y="12" width="16" height="1" fill="#ff6c61" />
      <rect x="8" y="13" width="16" height="1" fill="#ff6c61" />
      <rect x="8" y="14" width="16" height="1" fill="#ff6c61" />
      <rect x="8" y="15" width="16" height="1" fill="#ff6c61" />
      <rect x="9" y="16" width="14" height="1" fill="#ff6c61" />
      <rect x="9" y="17" width="14" height="1" fill="#ff6c61" />
      <rect x="10" y="18" width="12" height="1" fill="#ff6c61" />
      <rect x="11" y="19" width="10" height="1" fill="#ff6c61" />
      <rect x="12" y="20" width="8" height="1" fill="#ff6c61" />
      <rect x="11" y="13" width="10" height="1" fill="#d43f3b" />
      <rect x="11" y="14" width="10" height="1" fill="#d43f3b" />
      <rect x="12" y="15" width="8" height="1" fill="#d43f3b" />
      <rect x="12" y="16" width="8" height="1" fill="#d43f3b" />
      <rect x="13" y="17" width="6" height="1" fill="#d43f3b" />
      <rect x="13" y="18" width="6" height="1" fill="#d43f3b" />
      <rect x="5" y="14" width="4" height="4" fill="#ff6c61" />
      <rect x="4" y="15" width="4" height="3" fill="#f85f54" />
      <rect x="23" y="14" width="4" height="4" fill="#ff6c61" />
      <rect x="24" y="15" width="4" height="3" fill="#f85f54" />
      <rect x="12" y="11" width="3" height="3" fill="#0c1626" />
      <rect x="18" y="11" width="3" height="3" fill="#0c1626" />
      <rect x="13" y="12" width="1" height="1" fill="#61ebff" />
      <rect x="19" y="12" width="1" height="1" fill="#61ebff" />
      <rect x="14" y="21" width="2" height="5" fill="#d43f3b" />
      <rect x="17" y="21" width="2" height="5" fill="#d43f3b" />
    </g>
    <g id="lobster-down-right">
      <rect x="13" y="4" width="1" height="3" fill="#ff6c61" />
      <rect x="20" y="4" width="1" height="4" fill="#ff6c61" />
      <rect x="12" y="3" width="1" height="1" fill="#ff6c61" />
      <rect x="21" y="3" width="1" height="1" fill="#ff6c61" />
      <rect x="15" y="7" width="4" height="1" fill="#ff6c61" />
      <rect x="14" y="8" width="7" height="1" fill="#ff6c61" />
      <rect x="12" y="9" width="10" height="1" fill="#ff6c61" />
      <rect x="11" y="10" width="12" height="1" fill="#ff6c61" />
      <rect x="10" y="11" width="13" height="1" fill="#ff6c61" />
      <rect x="10" y="12" width="13" height="1" fill="#ff6c61" />
      <rect x="9" y="13" width="14" height="1" fill="#ff6c61" />
      <rect x="9" y="14" width="14" height="1" fill="#ff6c61" />
      <rect x="10" y="15" width="13" height="1" fill="#ff6c61" />
      <rect x="11" y="16" width="12" height="1" fill="#ff6c61" />
      <rect x="12" y="17" width="10" height="1" fill="#ff6c61" />
      <rect x="13" y="18" width="8" height="1" fill="#ff6c61" />
      <rect x="14" y="19" width="6" height="1" fill="#ff6c61" />
      <rect x="13" y="13" width="8" height="1" fill="#d43f3b" />
      <rect x="14" y="14" width="7" height="1" fill="#d43f3b" />
      <rect x="14" y="15" width="7" height="1" fill="#d43f3b" />
      <rect x="15" y="16" width="5" height="1" fill="#d43f3b" />
      <rect x="15" y="17" width="4" height="1" fill="#d43f3b" />
      <rect x="7" y="15" width="3" height="3" fill="#ff6c61" />
      <rect x="6" y="16" width="3" height="2" fill="#f85f54" />
      <rect x="23" y="14" width="4" height="4" fill="#ff6c61" />
      <rect x="24" y="15" width="4" height="3" fill="#f85f54" />
      <rect x="14" y="11" width="3" height="3" fill="#0c1626" />
      <rect x="18" y="12" width="2" height="2" fill="#0c1626" />
      <rect x="15" y="12" width="1" height="1" fill="#61ebff" />
      <rect x="18" y="12" width="1" height="1" fill="#61ebff" />
      <rect x="15" y="20" width="2" height="5" fill="#d43f3b" />
      <rect x="18" y="21" width="2" height="4" fill="#d43f3b" />
    </g>
    <g id="lobster-right">
      <rect x="15" y="4" width="1" height="3" fill="#ff6c61" />
      <rect x="20" y="5" width="1" height="3" fill="#ff6c61" />
      <rect x="21" y="4" width="1" height="1" fill="#ff6c61" />
      <rect x="16" y="8" width="4" height="1" fill="#ff6c61" />
      <rect x="14" y="9" width="7" height="1" fill="#ff6c61" />
      <rect x="12" y="10" width="10" height="1" fill="#ff6c61" />
      <rect x="10" y="11" width="12" height="1" fill="#ff6c61" />
      <rect x="9" y="12" width="14" height="1" fill="#ff6c61" />
      <rect x="8" y="13" width="16" height="1" fill="#ff6c61" />
      <rect x="8" y="14" width="16" height="1" fill="#ff6c61" />
      <rect x="8" y="15" width="16" height="1" fill="#ff6c61" />
      <rect x="9" y="16" width="15" height="1" fill="#ff6c61" />
      <rect x="10" y="17" width="13" height="1" fill="#ff6c61" />
      <rect x="12" y="18" width="10" height="1" fill="#ff6c61" />
      <rect x="14" y="19" width="7" height="1" fill="#ff6c61" />
      <rect x="16" y="20" width="4" height="1" fill="#ff6c61" />
      <rect x="10" y="12" width="5" height="1" fill="#d43f3b" />
      <rect x="10" y="13" width="6" height="1" fill="#d43f3b" />
      <rect x="10" y="14" width="6" height="1" fill="#d43f3b" />
      <rect x="11" y="15" width="5" height="1" fill="#d43f3b" />
      <rect x="15" y="15" width="7" height="1" fill="#d43f3b" />
      <rect x="15" y="16" width="7" height="1" fill="#d43f3b" />
      <rect x="6" y="15" width="3" height="2" fill="#ff6c61" />
      <rect x="23" y="13" width="4" height="5" fill="#ff6c61" />
      <rect x="24" y="14" width="4" height="3" fill="#f85f54" />
      <rect x="16" y="11" width="2" height="3" fill="#0c1626" />
      <rect x="17" y="12" width="1" height="1" fill="#61ebff" />
      <rect x="15" y="21" width="2" height="5" fill="#d43f3b" />
      <rect x="18" y="21" width="2" height="5" fill="#d43f3b" />
    </g>
    <g id="lobster-up-right">
      <rect x="13" y="4" width="1" height="3" fill="#ff6c61" />
      <rect x="20" y="4" width="1" height="4" fill="#ff6c61" />
      <rect x="12" y="3" width="1" height="1" fill="#ff6c61" />
      <rect x="21" y="3" width="1" height="1" fill="#ff6c61" />
      <rect x="15" y="7" width="4" height="1" fill="#ff6c61" />
      <rect x="14" y="8" width="7" height="1" fill="#ff6c61" />
      <rect x="12" y="9" width="10" height="1" fill="#ff6c61" />
      <rect x="11" y="10" width="12" height="1" fill="#ff6c61" />
      <rect x="10" y="11" width="13" height="1" fill="#ff6c61" />
      <rect x="10" y="12" width="13" height="1" fill="#ff6c61" />
      <rect x="9" y="13" width="14" height="1" fill="#ff6c61" />
      <rect x="9" y="14" width="14" height="1" fill="#ff6c61" />
      <rect x="10" y="15" width="13" height="1" fill="#ff6c61" />
      <rect x="11" y="16" width="12" height="1" fill="#ff6c61" />
      <rect x="12" y="17" width="10" height="1" fill="#ff6c61" />
      <rect x="13" y="18" width="8" height="1" fill="#ff6c61" />
      <rect x="14" y="19" width="6" height="1" fill="#ff6c61" />
      <rect x="11" y="10" width="10" height="1" fill="#d43f3b" />
      <rect x="10" y="11" width="11" height="1" fill="#d43f3b" />
      <rect x="10" y="12" width="11" height="1" fill="#d43f3b" />
      <rect x="10" y="13" width="11" height="1" fill="#d43f3b" />
      <rect x="11" y="14" width="10" height="1" fill="#d43f3b" />
      <rect x="12" y="15" width="8" height="1" fill="#d43f3b" />
      <rect x="13" y="9" width="4" height="1" fill="#ffd0c8" />
      <rect x="7" y="15" width="3" height="3" fill="#ff6c61" />
      <rect x="6" y="16" width="3" height="2" fill="#d43f3b" />
      <rect x="23" y="14" width="4" height="4" fill="#ff6c61" />
      <rect x="24" y="15" width="4" height="3" fill="#d43f3b" />
      <rect x="15" y="20" width="2" height="5" fill="#d43f3b" />
      <rect x="18" y="21" width="2" height="4" fill="#d43f3b" />
    </g>
    <g id="lobster-up">
      <rect x="11" y="4" width="1" height="3" fill="#ff6c61" />
      <rect x="20" y="4" width="1" height="3" fill="#ff6c61" />
      <rect x="10" y="3" width="1" height="1" fill="#ff6c61" />
      <rect x="12" y="3" width="1" height="1" fill="#ff6c61" />
      <rect x="19" y="3" width="1" height="1" fill="#ff6c61" />
      <rect x="21" y="3" width="1" height="1" fill="#ff6c61" />
      <rect x="13" y="7" width="6" height="1" fill="#ff6c61" />
      <rect x="11" y="8" width="10" height="1" fill="#ff6c61" />
      <rect x="10" y="9" width="12" height="1" fill="#ff6c61" />
      <rect x="9" y="10" width="14" height="1" fill="#ff6c61" />
      <rect x="9" y="11" width="14" height="1" fill="#ff6c61" />
      <rect x="8" y="12" width="16" height="1" fill="#ff6c61" />
      <rect x="8" y="13" width="16" height="1" fill="#ff6c61" />
      <rect x="8" y="14" width="16" height="1" fill="#ff6c61" />
      <rect x="8" y="15" width="16" height="1" fill="#ff6c61" />
      <rect x="9" y="16" width="14" height="1" fill="#ff6c61" />
      <rect x="9" y="17" width="14" height="1" fill="#ff6c61" />
      <rect x="10" y="18" width="12" height="1" fill="#ff6c61" />
      <rect x="11" y="19" width="10" height="1" fill="#ff6c61" />
      <rect x="12" y="20" width="8" height="1" fill="#ff6c61" />
      <rect x="10" y="10" width="12" height="1" fill="#d43f3b" />
      <rect x="10" y="11" width="12" height="1" fill="#d43f3b" />
      <rect x="11" y="12" width="10" height="1" fill="#d43f3b" />
      <rect x="11" y="13" width="10" height="1" fill="#d43f3b" />
      <rect x="12" y="14" width="8" height="1" fill="#d43f3b" />
      <rect x="12" y="15" width="8" height="1" fill="#d43f3b" />
      <rect x="13" y="9" width="6" height="1" fill="#ffd0c8" />
      <rect x="5" y="14" width="4" height="4" fill="#ff6c61" />
      <rect x="4" y="15" width="4" height="3" fill="#d43f3b" />
      <rect x="23" y="14" width="4" height="4" fill="#ff6c61" />
      <rect x="24" y="15" width="4" height="3" fill="#d43f3b" />
      <rect x="14" y="21" width="2" height="5" fill="#d43f3b" />
      <rect x="17" y="21" width="2" height="5" fill="#d43f3b" />
    </g>
  </defs>
  <use href="#lobster-right" x="0" y="0" />
  <use href="#lobster-down-right" x="32" y="0" />
  <use href="#lobster-down" x="64" y="0" />
  <g transform="translate(128 0) scale(-1 1)">
    <use href="#lobster-down-right" x="0" y="0" />
  </g>
  <g transform="translate(160 0) scale(-1 1)">
    <use href="#lobster-right" x="0" y="0" />
  </g>
  <g transform="translate(192 0) scale(-1 1)">
    <use href="#lobster-up-right" x="0" y="0" />
  </g>
  <use href="#lobster-up" x="192" y="0" />
  <use href="#lobster-up-right" x="224" y="0" />
</svg>
