<svg xmlns="http://www.w3.org/2000/svg" width="256" height="32" viewBox="0 0 256 32" shape-rendering="crispEdges">
  <defs>
    <filter id="pixel-outline" x="-12.5%" y="-12.5%" width="125%" height="125%" color-interpolation-filters="sRGB">
      <feMorphology in="SourceAlpha" operator="dilate" radius="1" result="expanded" />
      <feComposite in="expanded" in2="SourceAlpha" operator="xor" result="outline-shape" />
      <feFlood flood-color="#7b1d1b" result="outline-color" />
      <feComposite in="outline-color" in2="outline-shape" operator="in" result="outline" />
      <feMerge>
        <feMergeNode in="outline" />
        <feMergeNode in="SourceGraphic" />
      </feMerge>
    </filter>

    <g id="lobster-down" filter="url(#pixel-outline)">
      <rect x="11" y="4" width="1" height="3" fill="#ff7468" />
      <rect x="20" y="4" width="1" height="3" fill="#ff7468" />
      <rect x="10" y="3" width="1" height="1" fill="#ff7468" />
      <rect x="12" y="3" width="1" height="1" fill="#ff7468" />
      <rect x="19" y="3" width="1" height="1" fill="#ff7468" />
      <rect x="21" y="3" width="1" height="1" fill="#ff7468" />
      <rect x="13" y="7" width="6" height="1" fill="#ff7468" />
      <rect x="11" y="8" width="10" height="1" fill="#ff7468" />
      <rect x="10" y="9" width="12" height="1" fill="#ff7468" />
      <rect x="9" y="10" width="14" height="1" fill="#ff7468" />
      <rect x="9" y="11" width="14" height="1" fill="#ff7468" />
      <rect x="8" y="12" width="16" height="1" fill="#ff7468" />
      <rect x="8" y="13" width="16" height="1" fill="#ff7468" />
      <rect x="8" y="14" width="16" height="1" fill="#ff7468" />
      <rect x="8" y="15" width="16" height="1" fill="#ff7468" />
      <rect x="9" y="16" width="14" height="1" fill="#ff7468" />
      <rect x="9" y="17" width="14" height="1" fill="#ff7468" />
      <rect x="10" y="18" width="12" height="1" fill="#ff7468" />
      <rect x="11" y="19" width="10" height="1" fill="#ff7468" />
      <rect x="12" y="20" width="8" height="1" fill="#ff7468" />
      <rect x="12" y="8" width="8" height="1" fill="#ffb0a2" />
      <rect x="11" y="9" width="4" height="1" fill="#ffb0a2" />
      <rect x="17" y="9" width="4" height="1" fill="#ff988b" />
      <rect x="11" y="13" width="10" height="1" fill="#c93a35" />
      <rect x="11" y="14" width="10" height="1" fill="#c93a35" />
      <rect x="12" y="15" width="8" height="1" fill="#c93a35" />
      <rect x="12" y="16" width="8" height="1" fill="#c93a35" />
      <rect x="13" y="17" width="6" height="1" fill="#c93a35" />
      <rect x="13" y="18" width="6" height="1" fill="#b42e2b" />
      <rect x="5" y="14" width="4" height="4" fill="#ff7468" />
      <rect x="4" y="15" width="4" height="3" fill="#ff5a53" />
      <rect x="23" y="14" width="4" height="4" fill="#ff7468" />
      <rect x="24" y="15" width="4" height="3" fill="#ff5a53" />
      <rect x="5" y="14" width="2" height="1" fill="#ffb0a2" />
      <rect x="25" y="14" width="2" height="1" fill="#ffb0a2" />
      <rect x="12" y="11" width="3" height="3" fill="#101827" />
      <rect x="18" y="11" width="3" height="3" fill="#101827" />
      <rect x="13" y="12" width="1" height="1" fill="#fff7d2" />
      <rect x="19" y="12" width="1" height="1" fill="#fff7d2" />
      <rect x="14" y="21" width="2" height="5" fill="#c93a35" />
      <rect x="17" y="21" width="2" height="5" fill="#c93a35" />
    </g>

    <g id="lobster-down-right" filter="url(#pixel-outline)">
      <rect x="13" y="4" width="1" height="3" fill="#ff7468" />
      <rect x="20" y="4" width="1" height="4" fill="#ff7468" />
      <rect x="12" y="3" width="1" height="1" fill="#ff7468" />
      <rect x="21" y="3" width="1" height="1" fill="#ff7468" />
      <rect x="15" y="7" width="4" height="1" fill="#ff7468" />
      <rect x="14" y="8" width="7" height="1" fill="#ff7468" />
      <rect x="12" y="9" width="10" height="1" fill="#ff7468" />
      <rect x="11" y="10" width="12" height="1" fill="#ff7468" />
      <rect x="10" y="11" width="13" height="1" fill="#ff7468" />
      <rect x="10" y="12" width="13" height="1" fill="#ff7468" />
      <rect x="9" y="13" width="14" height="1" fill="#ff7468" />
      <rect x="9" y="14" width="14" height="1" fill="#ff7468" />
      <rect x="10" y="15" width="13" height="1" fill="#ff7468" />
      <rect x="11" y="16" width="12" height="1" fill="#ff7468" />
      <rect x="12" y="17" width="10" height="1" fill="#ff7468" />
      <rect x="13" y="18" width="8" height="1" fill="#ff7468" />
      <rect x="14" y="19" width="6" height="1" fill="#ff7468" />
      <rect x="14" y="8" width="5" height="1" fill="#ffb0a2" />
      <rect x="13" y="9" width="5" height="1" fill="#ffb0a2" />
      <rect x="17" y="10" width="4" height="1" fill="#ff988b" />
      <rect x="13" y="13" width="8" height="1" fill="#c93a35" />
      <rect x="14" y="14" width="7" height="1" fill="#c93a35" />
      <rect x="14" y="15" width="7" height="1" fill="#c93a35" />
      <rect x="15" y="16" width="5" height="1" fill="#c93a35" />
      <rect x="15" y="17" width="4" height="1" fill="#b42e2b" />
      <rect x="7" y="15" width="3" height="3" fill="#ff7468" />
      <rect x="6" y="16" width="3" height="2" fill="#ff5a53" />
      <rect x="23" y="14" width="4" height="4" fill="#ff7468" />
      <rect x="24" y="15" width="4" height="3" fill="#ff5a53" />
      <rect x="24" y="14" width="2" height="1" fill="#ffb0a2" />
      <rect x="14" y="11" width="3" height="3" fill="#101827" />
      <rect x="18" y="12" width="2" height="2" fill="#101827" />
      <rect x="15" y="12" width="1" height="1" fill="#fff7d2" />
      <rect x="18" y="12" width="1" height="1" fill="#fff7d2" />
      <rect x="15" y="20" width="2" height="5" fill="#c93a35" />
      <rect x="18" y="21" width="2" height="4" fill="#c93a35" />
    </g>

    <g id="lobster-right" filter="url(#pixel-outline)">
      <rect x="15" y="4" width="1" height="3" fill="#ff7468" />
      <rect x="20" y="5" width="1" height="3" fill="#ff7468" />
      <rect x="21" y="4" width="1" height="1" fill="#ff7468" />
      <rect x="16" y="8" width="4" height="1" fill="#ff7468" />
      <rect x="14" y="9" width="7" height="1" fill="#ff7468" />
      <rect x="12" y="10" width="10" height="1" fill="#ff7468" />
      <rect x="10" y="11" width="12" height="1" fill="#ff7468" />
      <rect x="9" y="12" width="14" height="1" fill="#ff7468" />
      <rect x="8" y="13" width="16" height="1" fill="#ff7468" />
      <rect x="8" y="14" width="16" height="1" fill="#ff7468" />
      <rect x="8" y="15" width="16" height="1" fill="#ff7468" />
      <rect x="9" y="16" width="15" height="1" fill="#ff7468" />
      <rect x="10" y="17" width="13" height="1" fill="#ff7468" />
      <rect x="12" y="18" width="10" height="1" fill="#ff7468" />
      <rect x="14" y="19" width="7" height="1" fill="#ff7468" />
      <rect x="16" y="20" width="4" height="1" fill="#ff7468" />
      <rect x="16" y="8" width="3" height="1" fill="#ffb0a2" />
      <rect x="14" y="9" width="5" height="1" fill="#ffb0a2" />
      <rect x="13" y="10" width="5" height="1" fill="#ff988b" />
      <rect x="10" y="12" width="5" height="1" fill="#c93a35" />
      <rect x="10" y="13" width="6" height="1" fill="#c93a35" />
      <rect x="10" y="14" width="6" height="1" fill="#c93a35" />
      <rect x="11" y="15" width="5" height="1" fill="#c93a35" />
      <rect x="15" y="15" width="7" height="1" fill="#c93a35" />
      <rect x="15" y="16" width="7" height="1" fill="#b42e2b" />
      <rect x="6" y="15" width="3" height="2" fill="#ff7468" />
      <rect x="23" y="13" width="4" height="5" fill="#ff7468" />
      <rect x="24" y="14" width="4" height="3" fill="#ff5a53" />
      <rect x="23" y="13" width="2" height="1" fill="#ffb0a2" />
      <rect x="16" y="11" width="2" height="3" fill="#101827" />
      <rect x="17" y="12" width="1" height="1" fill="#fff7d2" />
      <rect x="15" y="21" width="2" height="5" fill="#c93a35" />
      <rect x="18" y="21" width="2" height="5" fill="#c93a35" />
    </g>

    <g id="lobster-up-right" filter="url(#pixel-outline)">
      <rect x="13" y="4" width="1" height="3" fill="#ff7468" />
      <rect x="20" y="4" width="1" height="4" fill="#ff7468" />
      <rect x="12" y="3" width="1" height="1" fill="#ff7468" />
      <rect x="21" y="3" width="1" height="1" fill="#ff7468" />
      <rect x="15" y="7" width="4" height="1" fill="#ff7468" />
      <rect x="14" y="8" width="7" height="1" fill="#ff7468" />
      <rect x="12" y="9" width="10" height="1" fill="#ff7468" />
      <rect x="11" y="10" width="12" height="1" fill="#ff7468" />
      <rect x="10" y="11" width="13" height="1" fill="#ff7468" />
      <rect x="10" y="12" width="13" height="1" fill="#ff7468" />
      <rect x="9" y="13" width="14" height="1" fill="#ff7468" />
      <rect x="9" y="14" width="14" height="1" fill="#ff7468" />
      <rect x="10" y="15" width="13" height="1" fill="#ff7468" />
      <rect x="11" y="16" width="12" height="1" fill="#ff7468" />
      <rect x="12" y="17" width="10" height="1" fill="#ff7468" />
      <rect x="13" y="18" width="8" height="1" fill="#ff7468" />
      <rect x="14" y="19" width="6" height="1" fill="#ff7468" />
      <rect x="13" y="8" width="6" height="1" fill="#ffb0a2" />
      <rect x="12" y="9" width="7" height="1" fill="#ffb0a2" />
      <rect x="13" y="10" width="6" height="1" fill="#ff988b" />
      <rect x="11" y="10" width="10" height="1" fill="#c93a35" />
      <rect x="10" y="11" width="11" height="1" fill="#c93a35" />
      <rect x="10" y="12" width="11" height="1" fill="#c93a35" />
      <rect x="10" y="13" width="11" height="1" fill="#c93a35" />
      <rect x="11" y="14" width="10" height="1" fill="#c93a35" />
      <rect x="12" y="15" width="8" height="1" fill="#b42e2b" />
      <rect x="7" y="15" width="3" height="3" fill="#ff7468" />
      <rect x="6" y="16" width="3" height="2" fill="#c93a35" />
      <rect x="23" y="14" width="4" height="4" fill="#ff7468" />
      <rect x="24" y="15" width="4" height="3" fill="#c93a35" />
      <rect x="15" y="20" width="2" height="5" fill="#c93a35" />
      <rect x="18" y="21" width="2" height="4" fill="#c93a35" />
    </g>

    <g id="lobster-up" filter="url(#pixel-outline)">
      <rect x="11" y="4" width="1" height="3" fill="#ff7468" />
      <rect x="20" y="4" width="1" height="3" fill="#ff7468" />
      <rect x="10" y="3" width="1" height="1" fill="#ff7468" />
      <rect x="12" y="3" width="1" height="1" fill="#ff7468" />
      <rect x="19" y="3" width="1" height="1" fill="#ff7468" />
      <rect x="21" y="3" width="1" height="1" fill="#ff7468" />
      <rect x="13" y="7" width="6" height="1" fill="#ff7468" />
      <rect x="11" y="8" width="10" height="1" fill="#ff7468" />
      <rect x="10" y="9" width="12" height="1" fill="#ff7468" />
      <rect x="9" y="10" width="14" height="1" fill="#ff7468" />
      <rect x="9" y="11" width="14" height="1" fill="#ff7468" />
      <rect x="8" y="12" width="16" height="1" fill="#ff7468" />
      <rect x="8" y="13" width="16" height="1" fill="#ff7468" />
      <rect x="8" y="14" width="16" height="1" fill="#ff7468" />
      <rect x="8" y="15" width="16" height="1" fill="#ff7468" />
      <rect x="9" y="16" width="14" height="1" fill="#ff7468" />
      <rect x="9" y="17" width="14" height="1" fill="#ff7468" />
      <rect x="10" y="18" width="12" height="1" fill="#ff7468" />
      <rect x="11" y="19" width="10" height="1" fill="#ff7468" />
      <rect x="12" y="20" width="8" height="1" fill="#ff7468" />
      <rect x="12" y="8" width="8" height="1" fill="#ffb0a2" />
      <rect x="11" y="9" width="10" height="1" fill="#ffb0a2" />
      <rect x="13" y="10" width="6" height="1" fill="#ff988b" />
      <rect x="10" y="10" width="12" height="1" fill="#c93a35" />
      <rect x="10" y="11" width="12" height="1" fill="#c93a35" />
      <rect x="11" y="12" width="10" height="1" fill="#c93a35" />
      <rect x="11" y="13" width="10" height="1" fill="#c93a35" />
      <rect x="12" y="14" width="8" height="1" fill="#c93a35" />
      <rect x="12" y="15" width="8" height="1" fill="#b42e2b" />
      <rect x="5" y="14" width="4" height="4" fill="#ff7468" />
      <rect x="4" y="15" width="4" height="3" fill="#c93a35" />
      <rect x="23" y="14" width="4" height="4" fill="#ff7468" />
      <rect x="24" y="15" width="4" height="3" fill="#c93a35" />
      <rect x="14" y="21" width="2" height="5" fill="#c93a35" />
      <rect x="17" y="21" width="2" height="5" fill="#c93a35" />
    </g>
  </defs>

  <use href="#lobster-right" x="0" y="0" />
  <use href="#lobster-down-right" x="32" y="0" />
  <use href="#lobster-down" x="64" y="0" />
  <g transform="translate(128 0) scale(-1 1)">
    <use href="#lobster-down-right" x="0" y="0" />
  </g>
  <g transform="translate(160 0) scale(-1 1)">
    <use href="#lobster-right" x="0" y="0" />
  </g>
  <g transform="translate(192 0) scale(-1 1)">
    <use href="#lobster-up-right" x="0" y="0" />
  </g>
  <use href="#lobster-up" x="192" y="0" />
  <use href="#lobster-up-right" x="224" y="0" />
</svg>
